<svg xmlns="http://www.w3.org/2000/svg" viewBox="0 0 600 168" width="600" height="168"><defs><linearGradient id="bg" x1="0" y1="0" x2="1" y2="1"><stop offset="0" stop-color="#12392a"/><stop offset="1" stop-color="#08201a"/></linearGradient>
<linearGradient id="ic" x1="0" y1="0" x2="1" y2="1"><stop offset="0" stop-color="#b6e57f"/><stop offset="1" stop-color="#3f9d58"/></linearGradient>
<radialGradient id="gl" cx="100%" cy="0%" r="80%"><stop offset="0" stop-color="#9fd86a" stop-opacity=".28"/><stop offset="1" stop-color="#9fd86a" stop-opacity="0"/></radialGradient></defs>
<rect width="600" height="168" rx="22" fill="url(#bg)"/><rect width="600" height="168" rx="22" fill="url(#gl)"/>
<rect x=".75" y=".75" width="598.5" height="166.5" rx="21.5" fill="none" stroke="#9fd86a" stroke-opacity=".22" stroke-width="1.5"/>
<rect x="506" y="28" width="68" height="68" rx="20" fill="url(#ic)"/>
<g transform="translate(520 42) scale(1.6666666666666667)" fill="none" stroke="#0a2a1b" stroke-width="1.8" stroke-linecap="round" stroke-linejoin="round"><path d="M4 20V5"/><path d="M4 20h16"/><rect x="7.5" y="12" width="3" height="5.5" rx=".8"/><rect x="12.5" y="8" width="3" height="9.5" rx=".8"/><rect x="17.5" y="10.5" width="2.5" height="7" rx=".8"/></g>
<g font-family="'IBM Plex Sans Arabic','Noto Kufi Arabic','Segoe UI',Tahoma,Arial,sans-serif" text-anchor="end">
<text x="490" y="62" font-size="27" font-weight="800" fill="#f3fbf0">تقارير وتنبيهات</text>
<text x="490" y="100" font-size="17" fill="#b9dcc0">فلاتر بأي مدى زمني وتنبيهات للتأخر</text>
<text x="490" y="126" font-size="17" fill="#b9dcc0">وتصدير Excel وPDF دون اتصال</text></g>
<rect x="24" y="148" width="552" height="3" rx="1.5" fill="url(#ic)" fill-opacity=".35"/></svg>